<?xml version="1.0" encoding="UTF-8"?>
<svg version="1.1" xmlns="http://www.w3.org/2000/svg" width="500" height="500">
<path d="M0 0 C0.70567124 -0.00205263 1.41134248 -0.00410527 2.13839769 -0.0062201 C4.5149351 -0.01189721 6.89141468 -0.01043197 9.26795769 -0.00901413 C10.98432541 -0.01159736 12.70069254 -0.01461041 14.41705883 -0.01801753 C19.14317458 -0.0260958 23.86927515 -0.02787756 28.595397 -0.028615 C33.68895755 -0.03046413 38.78251021 -0.03801081 43.87606621 -0.04475021 C55.01870633 -0.05834032 66.16134286 -0.06435942 77.30398989 -0.06876087 C84.26043366 -0.07152236 91.21687603 -0.07575957 98.17331886 -0.08026505 C117.43016091 -0.09245901 136.68700183 -0.1027578 155.94384766 -0.10614014 C157.17668544 -0.1063597 158.40952323 -0.10657927 159.67971974 -0.10680549 C161.53342922 -0.10713291 161.53342922 -0.10713291 163.42458737 -0.10746694 C165.92884517 -0.1079104 168.43310297 -0.10835697 170.93736076 -0.10880661 C172.17956201 -0.10902804 173.42176326 -0.10924947 174.70160697 -0.10947761 C194.82814387 -0.11342532 214.95464456 -0.13087794 235.08116747 -0.15416613 C255.74023055 -0.17787772 276.39927545 -0.19034191 297.05835235 -0.19150805 C308.65944126 -0.19242497 320.260483 -0.19818131 331.86155891 -0.21632767 C341.74077002 -0.23172608 351.61991939 -0.23685066 361.49914022 -0.22858956 C366.5393166 -0.22468205 371.57936863 -0.22561765 376.61952972 -0.23964691 C381.23615449 -0.25237967 385.85256138 -0.25119374 390.46918581 -0.2390562 C392.13679914 -0.23709812 393.80442788 -0.24018278 395.47201957 -0.24890056 C404.06521639 -0.2909693 411.91676942 -0.11155228 420.02329826 3.13142776 C420.9398217 3.47302933 421.85634514 3.81463089 422.80064201 4.16658401 C435.26634293 10.09511809 444.52506321 20.08118228 449.33579826 32.94392776 C449.92420268 34.66445206 450.48950695 36.39318427 451.02329826 38.13142776 C451.20097591 38.69869296 451.37865355 39.26595815 451.56171536 39.8504132 C452.1911238 42.96077498 452.1595498 45.93422 452.1703434 49.1081295 C452.17408441 49.81380074 452.17782541 50.51947198 452.18167979 51.24652719 C452.19305462 53.62305289 452.19735594 55.99953899 452.20170403 58.37608719 C452.20841624 60.0924559 452.21555396 61.808823 452.22308183 63.52518833 C452.24251882 68.25129313 452.25571901 72.97739813 452.26788402 77.7035265 C452.28203851 82.79709543 452.30183473 87.89064296 452.32082939 92.98419571 C452.3612374 104.12682245 452.39413794 115.26946378 452.42541599 126.41211939 C452.44495278 133.36856566 452.4659345 140.32500711 452.48717308 147.28144836 C452.54568373 166.53828183 452.60228457 185.79511881 452.65201759 205.05197716 C452.65520477 206.28481494 452.65839195 207.51765273 452.66167571 208.78784924 C452.66486893 210.02365556 452.66806216 211.25946188 452.67135215 212.53271687 C452.67782448 215.03697468 452.68430001 217.54123247 452.69077873 220.04549026 C452.6955968 221.90879214 452.6955968 221.90879214 452.7005122 223.80973648 C452.7529169 243.93629995 452.81888319 264.06279431 452.89069757 284.18929698 C452.964217 304.84833279 453.02639685 325.50737743 453.07720113 346.16648185 C453.10599554 357.76758896 453.13967546 369.36863631 453.18585777 380.96968842 C453.22513169 390.84887239 453.25405352 400.72801854 453.26948538 410.60726972 C453.27766834 415.64746526 453.29073348 420.6875227 453.31699753 425.72765923 C453.34093615 430.34425381 453.35084461 434.96066077 453.34971443 439.57731532 C453.35175196 441.24494138 453.35887283 442.91257087 453.37167177 444.58014907 C453.43477446 453.17682252 453.27340748 461.02161806 450.02329826 469.13142776 C449.6816967 470.0479512 449.34009514 470.96447464 448.98814201 471.90877151 C443.2783232 483.91458826 433.5646811 493.18060082 421.3131628 498.26025867 C413.6086021 500.97273258 405.8742285 500.6828678 397.82296562 500.63263321 C396.08817816 500.6365308 394.3533939 500.64217491 392.61861712 500.64940411 C387.87400034 500.66411073 383.12971707 500.6540061 378.38511121 500.63966739 C373.25962304 500.62853426 368.13418075 500.64050791 363.0086956 500.64950943 C352.97701651 500.66342764 342.94546347 500.65589629 332.9137904 500.64083385 C321.22781968 500.62395664 309.54188021 500.62718615 297.85590107 500.63092793 C277.0037157 500.63680385 256.15159076 500.62264509 235.29942131 500.5979805 C215.07185921 500.57405746 194.84437783 500.5669778 174.61680412 500.57747269 C152.58140706 500.58888509 130.54604731 500.5908082 108.51065069 500.57637459 C106.16049707 500.57484878 103.81034345 500.57332842 101.46018982 500.57181358 C100.30391549 500.57105577 99.14764117 500.57029795 97.95632822 500.56951718 C89.81310269 500.56477709 81.66989383 500.56662382 73.52666855 500.57087898 C63.60186598 500.57580845 53.67713967 500.56980861 43.75235455 500.54998469 C38.68986149 500.54012148 33.62748451 500.53499716 28.56498528 500.5428772 C23.92826965 500.54994677 19.29178799 500.54309948 14.65510315 500.52527357 C12.98030321 500.52123739 11.30548186 500.52221498 9.63068997 500.52879243 C1.02224915 500.55969979 -6.85662544 500.38083056 -14.97670174 497.13142776 C-15.89322517 496.7898262 -16.80974861 496.44822464 -17.75404549 496.09627151 C-30.21974641 490.16773744 -39.47846669 480.18167325 -44.28920174 467.31892776 C-44.87760615 465.59840347 -45.44291043 463.86967126 -45.97670174 462.13142776 C-46.15452865 461.5663021 -46.33235557 461.00117644 -46.51557118 460.41892576 C-47.14980908 457.27270632 -47.10930542 454.26086258 -47.11650944 451.05099106 C-47.11946086 450.3341004 -47.12241228 449.61720973 -47.12545314 448.87859511 C-47.13415101 446.46387876 -47.13572541 444.04921027 -47.13733101 441.63447952 C-47.14206153 439.8906631 -47.14721238 438.14684778 -47.15274864 436.40303373 C-47.16666437 431.60097371 -47.17424106 426.79892126 -47.18072164 421.9968462 C-47.18709042 417.88041475 -47.19716084 413.76399578 -47.2072823 409.6475721 C-47.24061492 396.08436369 -47.26212941 382.52114768 -47.28048214 368.95791173 C-47.28527696 365.42632543 -47.2902603 361.89473944 -47.29528737 358.36315346 C-47.3262585 336.434256 -47.35294498 314.50535592 -47.36970615 292.57644272 C-47.37365568 287.49646373 -47.37765867 282.41648478 -47.38173103 277.33650589 C-47.38273939 276.07389496 -47.38374776 274.81128403 -47.38478667 273.51041216 C-47.40179219 253.0586235 -47.4428998 232.60695587 -47.49375402 212.15522629 C-47.5455318 191.15941167 -47.57464864 170.16365929 -47.58190304 149.16778135 C-47.58656508 137.37876666 -47.60131437 125.58995016 -47.64164734 113.80099869 C-47.67595694 103.76040624 -47.68988279 93.72004774 -47.6772232 83.67940003 C-47.67139858 78.55782193 -47.6752468 73.43673856 -47.70539284 68.31523514 C-47.73279319 63.62181889 -47.73222808 58.92924797 -47.70988239 54.2358126 C-47.70666496 52.5425814 -47.71349561 50.84929321 -47.73167961 49.1561566 C-47.88095853 34.35305455 -43.85486202 24.23405299 -33.54701424 13.54158401 C-26.82209375 7.23569352 -19.75209298 3.82623295 -10.97670174 1.13142776 C-10.40943654 0.95342801 -9.84217135 0.77542826 -9.2577163 0.59203458 C-6.14593516 -0.03632949 -3.17510661 0.00314156 0 0 Z " fill="#FDFDFD" transform="translate(46.976701736450195,-0.13142776489257813)"/>
<path d="M0 0 C0.77121689 -0.00414413 1.54243378 -0.00828827 2.33702087 -0.01255798 C4.91483143 -0.02236474 7.49248577 -0.02217937 10.0703125 -0.01953125 C10.96914154 -0.01959167 11.86797058 -0.0196521 12.79403687 -0.01971436 C56.05779302 0.02085972 99.3044777 1.94383548 142.3203125 6.54296875 C143.74360367 6.6916893 143.74360367 6.6916893 145.19564819 6.84341431 C191.97985637 11.78130971 191.97985637 11.78130971 205.7578125 26.328125 C208.19237649 29.44410228 208.52444003 31.21843834 208.1953125 35.16796875 C206.19686404 39.92264167 203.48403087 44.1995388 200.66455078 48.50610352 C196.01708372 55.65700443 191.95572754 63.01810809 188.0703125 70.60546875 C187.59174805 71.53448502 187.59174805 71.53448502 187.10351562 72.48226929 C180.05115007 86.188341 173.54092692 100.12127582 167.1953125 114.16796875 C166.82438477 114.98072266 166.45345703 115.79347656 166.07128906 116.63085938 C162.23429969 125.0443169 158.87522055 133.55856797 155.74633789 142.25756836 C154.0827337 146.85963173 152.28010989 151.33298315 150.2578125 155.79296875 C147.44508552 162.22529076 145.22763125 168.80183825 143.0703125 175.48046875 C142.58316772 176.97344482 142.58316772 176.97344482 142.08618164 178.49658203 C141.06931177 181.70707034 140.11966811 184.9296207 139.1953125 188.16796875 C138.92260025 189.09752884 138.92260025 189.09752884 138.64437866 190.04586792 C135.42946568 201.22008034 134.59191443 211.81606221 134.72875977 223.41821289 C134.75805314 226.12772702 134.74924379 228.83531243 134.73632812 231.54492188 C134.74741916 243.36329355 134.83461292 253.58867736 143.3203125 262.60546875 C144.31331941 263.71932211 145.30549543 264.83391673 146.296875 265.94921875 C146.78833008 266.49191406 147.27978516 267.03460938 147.78613281 267.59375 C151.41547795 271.64815357 154.77663944 275.93642402 158.1953125 280.16796875 C158.63375488 280.7000293 159.07219727 281.23208984 159.52392578 281.78027344 C176.23573752 302.0685885 186.73521351 324.28969654 185.1953125 351.16796875 C182.44262301 370.93531373 174.65986558 384.90562848 159.1953125 397.16796875 C156.67011732 399.0562137 154.08819198 400.82389014 151.4453125 402.54296875 C150.86346191 402.93532715 150.28161133 403.32768555 149.68212891 403.73193359 C143.39938629 407.63517676 136.34538896 409.48189656 129.30725098 411.54663086 C125.9757897 412.52675559 122.65633187 413.54563721 119.3359375 414.5625 C118.69232773 414.75890076 118.04871796 414.95530151 117.38560486 415.15765381 C88.82274616 423.88481738 63.96269593 432.77990022 43.1953125 455.16796875 C42.8653125 455.82796875 42.5353125 456.48796875 42.1953125 457.16796875 C41.5353125 456.83796875 40.8753125 456.50796875 40.1953125 456.16796875 C57.06817786 431.37711071 81.43348796 419.78772692 109.02734375 410.11328125 C143.72780784 398.52377445 143.72780784 398.52377445 167.7265625 372.18359375 C173.78747618 358.29987288 176.19685101 341.25150576 171.5703125 326.54296875 C170.83266034 324.72839584 170.04165003 322.93446764 169.1953125 321.16796875 C168.77121094 320.26304687 168.34710938 319.358125 167.91015625 318.42578125 C162.67997018 308.14023427 155.39869205 299.31904309 147.64453125 290.84765625 C128.39268582 269.78423366 115.99748438 250.32648005 117.05615234 220.91845703 C119.97833644 163.16174471 147.38245668 94.16257733 178.06103516 45.56713867 C180.45564715 41.7495654 181.80459711 38.68212687 182.1953125 34.16796875 C181.42832031 34.05066406 180.66132813 33.93335938 179.87109375 33.8125 C176.991003 33.3074894 174.15605898 32.73953998 171.30078125 32.1171875 C146.45531715 26.76355611 121.44658042 24.24740247 96.1328125 22.48046875 C95.26303772 22.41962097 94.39326294 22.35877319 93.49713135 22.29608154 C69.72801678 20.66061523 46.00521408 19.96346023 22.1807251 19.97908783 C20.03584712 19.9804913 17.89097213 19.98038346 15.74609375 19.98028564 C-12.46811742 19.9898144 -40.6230648 20.79042858 -68.8046875 22.16796875 C-70.16294647 22.23304626 -70.16294647 22.23304626 -71.54864502 22.29943848 C-77.15600639 22.56873641 -82.76193721 22.85789583 -88.3671875 23.16796875 C-89.67365234 23.23870605 -90.98011719 23.30944336 -92.32617188 23.38232422 C-105.42591025 23.69925164 -105.42591025 23.69925164 -117.8046875 27.16796875 C-117.23333345 30.66465551 -116.10391368 32.13718552 -113.4921875 34.48046875 C-110.66301876 37.18912523 -108.70729555 39.74830159 -106.8815918 43.25195312 C-105.60745634 45.51888015 -104.11363691 47.5408975 -102.57421875 49.63671875 C-98.60454468 55.26889273 -95.51768296 61.17606122 -92.4921875 67.35546875 C-91.9360376 68.48025635 -91.3798877 69.60504395 -90.80688477 70.76391602 C-81.47778074 89.81345228 -72.83497888 108.86375176 -68.3671875 129.66796875 C-68.21949921 130.35071869 -68.07181091 131.03346863 -67.91964722 131.73690796 C-62.39921226 157.47092402 -58.71646809 182.7928787 -59.8046875 209.16796875 C-60.1346875 209.16796875 -60.4646875 209.16796875 -60.8046875 209.16796875 C-60.91949463 207.9962915 -61.03430176 206.82461426 -61.15258789 205.61743164 C-63.35185693 183.53791486 -65.60432134 162.26216783 -72.8046875 141.16796875 C-73.32326915 139.52697309 -73.83896694 137.88506287 -74.3515625 136.2421875 C-84.98181175 103.14839363 -101.60994848 70.92822435 -123.8046875 44.16796875 C-125.267705 42.38012498 -126.72606843 40.58846232 -128.1796875 38.79296875 C-128.82679688 38.00148437 -129.47390625 37.21 -130.140625 36.39453125 C-133.09964372 32.43528085 -134.38807138 29.33505274 -134.24609375 24.26171875 C-133.41312192 20.31063115 -130.94082531 17.59218487 -127.8046875 15.16796875 C-122.16077915 12.25962822 -116.61136514 11.18641443 -110.3671875 10.23046875 C-109.29718506 10.06426025 -108.22718262 9.89805176 -107.12475586 9.72680664 C-80.66618411 5.80599511 -53.90819786 3.88081372 -27.23461914 2.11889648 C-25.95127937 2.03304794 -25.95127937 2.03304794 -24.64201355 1.94546509 C-23.05041333 1.83965533 -21.45863438 1.7364845 -19.86665344 1.63656616 C-16.79821928 1.43321046 -13.80078054 1.16728931 -10.76953125 0.64013672 C-7.16974387 0.06685042 -3.63468599 0.00616201 0 0 Z " fill="#020202" transform="translate(212.8046875,19.83203125)"/>
<path d="M0 0 C-2.47015334 2.47015334 -3.71416403 2.40945414 -7.125 2.875 C-13.83167147 4.01768321 -18.80566455 5.64108939 -23.5 10.6875 C-25.40693381 14.89864549 -25.55604279 18.4422722 -25 23 C-24.505 23.99 -24.505 23.99 -24 25 C-13.47916749 26.03145417 -4.13703611 21.32880586 4 15 C4.66 15 5.32 15 6 15 C3.77163956 20.51034782 -1.00612453 23.13647584 -6 26 C-9.28547036 27.27323106 -12.56307716 28.23217681 -16 29 C-16.82934992 31.88736639 -17.15572513 33.54024008 -16.1796875 36.421875 C-15.74914062 37.19015625 -15.31859375 37.9584375 -14.875 38.75 C-14.45992188 39.52859375 -14.04484375 40.3071875 -13.6171875 41.109375 C-12.10110801 43.19988922 -12.10110801 43.19988922 -9.48046875 43.89453125 C-6.77460087 44.28273692 -6.77460087 44.28273692 -4.4375 41.9375 C-2.04230004 39.05097698 -0.04292407 36.13734768 2 33 C2.33 33 2.66 33 3 33 C3 35.31 3 37.62 3 40 C3.66 40.33 4.32 40.66 5 41 C4.67 41.33 4.34 41.66 4 42 C3.59439265 46.13719492 3.72503401 48.4806198 5.6875 52.1875 C9.26429231 56.53765281 12.6618706 59.16978421 18 61 C18 61.33 18 61.66 18 62 C16.35 62.33 14.7 62.66 13 63 C13.03093173 65.41585574 13.03093173 65.41585574 14 68 C18.66780836 71.30162055 22.49125454 71.5331044 28 71 C30.4595774 69.66169042 30.4595774 69.66169042 32 68 C31.58578031 63.16743695 29.53586014 61.17320782 26 58 C26.33 57.34 26.66 56.68 27 56 C31.05626703 58.85034981 33.27904757 61.31518506 35 66 C35.15074719 68.9395703 34.48028737 70.36788926 32.71484375 72.69140625 C28.00096763 77.85103898 21.90982467 82.21478907 14.875 83.33984375 C12.28254166 83.38845234 10.33032232 83.16516116 8 82 C5.04211431 81.5832448 5.04211431 81.5832448 2 82 C-0.32335498 84.32335498 -1.62299976 87.03415333 -3 90 C-3.350625 89.505 -3.70125 89.01 -4.0625 88.5 C-7.04280774 86.19266498 -9.33537695 86.62090106 -13 87 C-18.58783608 89.04433027 -21.014079 94.16648565 -24 99 C-24.66 99.99 -25.32 100.98 -26 102 C-27.05234728 109.06576029 -23.82702725 114.66004381 -21 121 C-20.67 121.99 -20.34 122.98 -20 124 C-19.34 124 -18.68 124 -18 124 C-17.79503906 123.37351562 -17.59007812 122.74703125 -17.37890625 122.1015625 C-17.10949219 121.28429687 -16.84007812 120.46703125 -16.5625 119.625 C-16.29566406 118.81289062 -16.02882813 118.00078125 -15.75390625 117.1640625 C-15 115 -15 115 -14 113 C-13.77377919 111.29636178 -13.59111527 109.58671299 -13.4375 107.875 C-13.31181641 106.50988281 -13.31181641 106.50988281 -13.18359375 105.1171875 C-13.12300781 104.41851562 -13.06242187 103.71984375 -13 103 C-12.67 103 -12.34 103 -12 103 C-11.01 106.96 -11.01 106.96 -10 111 C-8.94039063 110.4225 -7.88078125 109.845 -6.7890625 109.25 C-5.40115942 108.49978212 -4.01313213 107.74979399 -2.625 107 C-1.92632812 106.6184375 -1.22765625 106.236875 -0.5078125 105.84375 C4.7734375 103 4.7734375 103 7 103 C7 104.32 7 105.64 7 107 C7.99 107 8.98 107 10 107 C10.17015625 106.34773438 10.3403125 105.69546875 10.515625 105.0234375 C12.0054222 99.65065825 13.53285082 95.39172229 17 91 C17.33 91 17.66 91 18 91 C18.86697654 102.48743918 13.85775439 111.11959333 7 120 C5.56911472 117.13822943 6.40008303 115.06624227 7 112 C-3.30064697 112.52478751 -3.30064697 112.52478751 -11.8125 117.75 C-14.13626958 121.20245766 -14.83731366 122.88708608 -15 127 C-13.47716303 130.04902211 -13.47716303 130.04902211 -11.1875 132.8125 C-10.45917969 133.76769531 -9.73085938 134.72289062 -8.98046875 135.70703125 C-7.20806041 138.05620915 -7.20806041 138.05620915 -5 139 C-4.79375 138.46375 -4.5875 137.9275 -4.375 137.375 C-2.46749574 134.08021991 0.04819384 131.40636372 3 129 C3.66 129 4.32 129 5 129 C4 132 4 132 2.16015625 133.5546875 C-1.08886921 137.23260782 -2.10572146 141.49604526 -3.5625 146.125 C-4.13753121 147.94316963 -4.72176769 149.75846077 -5.31640625 151.5703125 C-5.56849854 152.37227051 -5.82059082 153.17422852 -6.08032227 154.00048828 C-7 156 -7 156 -10 158 C-9.505 151.565 -9.505 151.565 -9 145 C-12.11021281 145.66634401 -12.11021281 145.66634401 -13.16674805 148.04125977 C-13.52808838 148.91580811 -13.88942871 149.79035645 -14.26171875 150.69140625 C-14.65810547 151.63564453 -15.05449219 152.57988281 -15.46289062 153.55273438 C-15.86701172 154.54595703 -16.27113281 155.53917969 -16.6875 156.5625 C-17.10322266 157.55958984 -17.51894531 158.55667969 -17.94726562 159.58398438 C-18.97466855 162.05211325 -19.99171046 164.52401524 -21 167 C-19.68 167.33 -18.36 167.66 -17 168 C-18.09655288 169.31886772 -19.20253423 170.62990057 -20.3125 171.9375 C-20.92738281 172.66839844 -21.54226563 173.39929688 -22.17578125 174.15234375 C-24 176 -24 176 -27 177 C-27.4640625 177.9590625 -27.4640625 177.9590625 -27.9375 178.9375 C-29.2342338 181.45468915 -30.4221737 181.96886948 -33 183 C-33 183.99 -33 184.98 -33 186 C-32.34 186.33 -31.68 186.66 -31 187 C-31 187.66 -31 188.32 -31 189 C-31.66 189 -32.32 189 -33 189 C-29.91551281 192.34152779 -26.49310993 194.91150482 -22.8046875 197.53515625 C-18.96192187 200.6542842 -18.20008077 204.48403664 -16.9765625 209.0390625 C-16.18024894 211.17189501 -16.18024894 211.17189501 -14.0625 211.81640625 C-11.17708385 212.07325201 -9.52096281 211.39316366 -7 210 C-6.29120108 208.68857851 -5.63118268 207.35049274 -5 206 C-4.02990254 204.41109386 -3.05007177 202.8281045 -2.0625 201.25 C2.86953033 193.01794938 4.65528505 185.49210555 6 176 C6.33 176 6.66 176 7 176 C6.68359981 191.26630923 5.86978912 204.20517131 -5.54296875 215.53125 C-9.69563659 219.2035321 -12.90862055 220.92394984 -18.4375 221.125 C-23.51905168 219.52029947 -25.39948875 216.50699538 -28 212 C-29.21886416 209.19661243 -29.89217444 206.62050556 -30.4140625 203.6171875 C-31.4095958 197.93396252 -31.4095958 197.93396252 -34.125 192.875 C-36.04665787 189.92845793 -36.83247984 187.90014257 -36.6328125 184.359375 C-35.47475626 180.04168382 -32.86562262 176.55422432 -30.43359375 172.84765625 C-27.56525096 168.42548042 -25.12789665 163.79317273 -22.6875 159.125 C-22.26742676 158.32860107 -21.84735352 157.53220215 -21.41455078 156.71166992 C-16.26201542 147.81829987 -16.26201542 147.81829987 -15 138 C-16.72226496 134.75150023 -16.72226496 134.75150023 -20 134 C-20.33 134.66 -20.66 135.32 -21 136 C-21.28875 135.195625 -21.5775 134.39125 -21.875 133.5625 C-22.73262568 130.8673532 -22.73262568 130.8673532 -25 130 C-25.33 133.96 -25.66 137.92 -26 142 C-26.33 142 -26.66 142 -27 142 C-27 136.06 -27 130.12 -27 124 C-28.98 123.01 -28.98 123.01 -31 122 C-32.60666183 120.22335006 -34.14377001 118.38249965 -35.625 116.5 C-38.66949282 112.62232458 -38.66949282 112.62232458 -42 109 C-43.93863545 108.87440591 -43.93863545 108.87440591 -46 110 C-51.14937446 115.50863314 -52.03098633 118.74649845 -52.1875 126.125 C-52.55205229 133.31997547 -54.22773619 137.63359893 -59 143 C-60.21042969 144.3921875 -60.21042969 144.3921875 -61.4453125 145.8125 C-72.89195117 158.66007057 -72.89195117 158.66007057 -79 163 C-79.99 163 -80.98 163 -82 163 C-80.42414494 159.26496231 -78.07781431 156.74720569 -75.3125 153.8125 C-70.91775015 149.06261885 -66.88982936 144.16569339 -63 139 C-59.23728814 134.11864407 -59.23728814 134.11864407 -57 133 C-56.91909029 131.37581255 -56.86085005 129.75048255 -56.8125 128.125 C-56.77769531 127.22007812 -56.74289063 126.31515625 -56.70703125 125.3828125 C-56.80371094 124.59648437 -56.90039062 123.81015625 -57 123 C-57.99 122.34 -58.98 121.68 -60 121 C-60 122.98 -60 124.96 -60 127 C-60.350625 126.505 -60.70125 126.01 -61.0625 125.5 C-63.3154127 123.75580952 -65.04978968 123.20717927 -67.91015625 123.328125 C-72.88129274 124.92632215 -76.44421004 129.35229948 -80 133 C-80.96486328 133.93392578 -80.96486328 133.93392578 -81.94921875 134.88671875 C-95.82637856 149.26283262 -97.41774379 167.50568024 -97.10546875 186.42578125 C-97.0724152 187.95056787 -97.03810207 189.47533119 -97 191 C-86.1473652 189.54980177 -80.95020589 186.10918266 -74.03125 177.5703125 C-69.76927303 171.7194406 -66.33001849 165.41607958 -63 159 C-61.11342305 164.49513017 -63.58197444 169.00558953 -66 174 C-72.37934522 184.89740821 -81.5249221 197.02356892 -94 201 C-97.6875 201.625 -97.6875 201.625 -101 201 C-105.78788123 196.6473807 -108.49125945 191.12529755 -109.28710938 184.671875 C-109.40193796 182.18996597 -109.41691892 179.7341723 -109.375 177.25 C-109.36339844 176.3645752 -109.35179687 175.47915039 -109.33984375 174.56689453 C-108.88592561 156.32672822 -100.77188573 136.53927026 -87.6484375 123.69921875 C-81.56992991 118.67664525 -75.63774296 116.71418428 -68.01391602 115.36547852 C-61.93964325 114.26100096 -57.70639528 112.19393679 -53.8125 107.1875 C-52.48812308 104.85842335 -51.39955528 102.70179647 -50.375 100.25 C-49 97 -49 97 -47 95 C-46.154375 94.71125 -45.30875 94.4225 -44.4375 94.125 C-41.88721985 93.26509731 -41.88721985 93.26509731 -41.1484375 91.1875 C-40.77520736 88.91012398 -40.77520736 88.91012398 -42.29296875 86.9921875 C-43.23076172 85.94417969 -43.23076172 85.94417969 -44.1875 84.875 C-46.94042251 81.58452457 -48.62415423 78.81086636 -50 74.75 C-51.55349558 70.54642372 -53.10508585 68.25313546 -56.92578125 65.8828125 C-60.1422863 64.51382918 -63.40782034 63.98860449 -66.86328125 63.5546875 C-69 63 -69 63 -71 60 C-68.36 60.66 -65.72 61.32 -63 62 C-61.25150329 57.6960081 -59.6229639 53.35249409 -58 49 C-58.99 48.67 -59.98 48.34 -61 48 C-60.01 47.67 -59.02 47.34 -58 47 C-57.01 48.65 -56.02 50.3 -55 52 C-48.92063217 51.72980587 -44.82225704 51.03723846 -40 47 C-39.443125 46.21625 -38.88625 45.4325 -38.3125 44.625 C-34.13947794 39.88805604 -27.95132858 36.98377619 -22 35 C-21.96127313 32.66461093 -21.96127313 32.66461093 -23 30 C-24.71438785 28.51728618 -26.48872719 27.31959171 -28.40625 26.11328125 C-30 25 -30 25 -31 23 C-31.59202006 17.07979939 -30.52817863 12.73413799 -27 8 C-19.50149034 1.31354093 -9.72088553 -0.47036543 0 0 Z " fill="#070707" transform="translate(282,62)"/>
<path d="M0 0 C4.95 0 9.9 0 15 0 C15.98490856 4.9245428 15.79198762 7.4166417 14.890625 12.25 C14.69941071 13.29184448 14.69941071 13.29184448 14.5043335 14.35473633 C14.23279948 15.82469865 13.95684343 17.29385013 13.67675781 18.76220703 C13.25695243 20.96354348 12.8498504 23.16690621 12.4453125 25.37109375 C11.01381575 33.09012786 9.42842183 40.73946987 7.54199219 48.36328125 C6.86576945 51.20437228 6.86576945 51.20437228 7 55 C10.77068832 55.086985 14.54111932 55.14038579 18.3125 55.1875 C19.9202832 55.22520508 19.9202832 55.22520508 21.56054688 55.26367188 C22.58857422 55.27333984 23.61660156 55.28300781 24.67578125 55.29296875 C25.62364502 55.3086792 26.57150879 55.32438965 27.5480957 55.34057617 C29.99039157 55.17778309 29.99039157 55.17778309 31.71020508 53.890625 C33.5396694 51.20893435 34.15980483 48.60142384 34.9609375 45.45703125 C35.1283847 44.80112503 35.29583191 44.14521881 35.46835327 43.46943665 C37.70514724 34.48615374 39.36605642 25.37495946 41.078125 16.28051758 C41.51693504 13.96045136 41.96499437 11.64231762 42.4140625 9.32421875 C42.54430817 8.61601486 42.67455383 7.90781097 42.80874634 7.17814636 C43.77368777 2.22631223 43.77368777 2.22631223 46 0 C49.1875 -0.23046875 49.1875 -0.23046875 53 -0.1875 C54.258125 -0.18105469 55.51625 -0.17460937 56.8125 -0.16796875 C60 0 60 0 62 1 C61.70580903 2.59376474 61.41151433 4.18751034 61.1171875 5.78125 C60.82497314 7.36365479 60.82497314 7.36365479 60.52685547 8.97802734 C60.08717622 11.35361268 59.64606315 13.72893303 59.20361328 16.10400391 C58.06000636 22.2458318 56.92611705 28.38872743 55.83078003 34.53936768 C55.31228515 37.44353447 54.78583551 40.34623147 54.25836182 43.2487793 C54.0039014 44.66008051 53.75301356 46.07203079 53.50579834 47.48461914 C53.1563897 49.47837657 52.79328618 51.46971901 52.4296875 53.4609375 C52.22585449 54.60353027 52.02202148 55.74612305 51.81201172 56.92333984 C50.96915279 60.11687811 49.96525391 62.35144058 48 65 C44.84665174 66.05111609 42.64487717 66.12070472 39.33520508 66.11352539 C38.17422806 66.11344986 37.01325104 66.11337433 35.8170929 66.11329651 C34.56389755 66.10813522 33.31070221 66.10297394 32.01953125 66.09765625 C30.73640549 66.0962413 29.45327972 66.09482635 28.13127136 66.09336853 C24.72329759 66.08955405 21.31536657 66.07973291 17.90740967 66.06866455 C14.42851337 66.05842743 10.94961015 66.05386598 7.47070312 66.04882812 C0.64711788 66.03810967 -6.17643901 66.02104609 -13 66 C-13.25461254 59.47895721 -12.31558774 53.68227399 -10.91796875 47.32421875 C-10.59570061 45.81550957 -10.59570061 45.81550957 -10.266922 44.27632141 C-9.81255875 42.1567777 -9.35428974 40.0380679 -8.89233398 37.92016602 C-8.19232925 34.70964899 -7.50428767 31.4967538 -6.81835938 28.28320312 C-6.37309842 26.2133904 -5.92715674 24.14372397 -5.48046875 22.07421875 C-5.27721481 21.1280217 -5.07396088 20.18182465 -4.86454773 19.20695496 C-3.45010358 12.74004435 -1.78343515 6.37523841 0 0 Z " fill="#000000" transform="translate(211,364)"/>
<path d="M0 0 C0.78617706 -0.0033284 1.57235413 -0.0066568 2.38235474 -0.01008606 C4.05177222 -0.0151514 5.72119984 -0.01749451 7.390625 -0.01733398 C9.90122128 -0.01949333 12.41135808 -0.03757654 14.921875 -0.05664062 C38.02261519 -0.14183769 38.02261519 -0.14183769 44.39086914 3.4921875 C46.0703125 5.16796875 46.0703125 5.16796875 46.55981445 7.03637695 C46.36763421 13.42986766 45.02370543 19.22285239 43.2578125 25.35546875 C42.86625977 26.7930957 42.86625977 26.7930957 42.46679688 28.25976562 C39.55318682 38.66962673 39.55318682 38.66962673 37.0703125 42.16796875 C32.13869108 43.9310292 27.36297996 44.54754844 22.16796875 44.80078125 C21.4454039 44.84234344 20.72283905 44.88390564 19.9783783 44.92672729 C17.69686542 45.05626269 15.41493934 45.17479881 13.1328125 45.29296875 C11.57482909 45.37947838 10.01688565 45.46671113 8.45898438 45.5546875 C4.66317525 45.76882043 0.86700158 45.96803106 -2.9296875 46.16796875 C-4.5796875 52.76796875 -6.2296875 59.36796875 -7.9296875 66.16796875 C-12.8796875 66.16796875 -17.8296875 66.16796875 -22.9296875 66.16796875 C-24.2648457 62.16249415 -23.44709929 58.80788747 -22.78515625 54.73828125 C-22.65530838 53.91093475 -22.52546051 53.08358826 -22.39167786 52.23117065 C-22.11511288 50.48054457 -21.83496425 48.73048144 -21.55151367 46.98095703 C-21.12021077 44.31167939 -20.70282895 41.64049374 -20.28710938 38.96875 C-20.01645889 37.26679427 -19.74500074 35.56496673 -19.47265625 33.86328125 C-19.34859909 33.06729523 -19.22454193 32.2713092 -19.09672546 31.45120239 C-18.97352432 30.70047455 -18.85032318 29.9497467 -18.72338867 29.17626953 C-18.61822433 28.52135529 -18.51306 27.86644104 -18.40470886 27.19168091 C-17.9296875 25.16796875 -17.9296875 25.16796875 -15.9296875 20.16796875 C-9.9896875 20.16796875 -4.0496875 20.16796875 2.0703125 20.16796875 C1.0703125 27.16796875 1.0703125 27.16796875 -0.9296875 31.16796875 C6.9903125 31.16796875 14.9103125 31.16796875 23.0703125 31.16796875 C24.5553125 23.24796875 24.5553125 23.24796875 26.0703125 15.16796875 C24.89412354 15.1429126 23.71793457 15.11785645 22.50610352 15.09204102 C18.15816628 14.99814069 13.81039534 14.89787827 9.46264648 14.7956543 C7.57792032 14.75223942 5.69315314 14.71056932 3.80834961 14.6706543 C1.10518001 14.61310982 -1.59778186 14.54937071 -4.30078125 14.484375 C-5.14869736 14.46766251 -5.99661346 14.45095001 -6.870224 14.43373108 C-12.81581579 14.28184046 -12.81581579 14.28184046 -13.9296875 13.16796875 C-13.51857648 8.89241414 -12.95330133 4.99035042 -10.9296875 1.16796875 C-7.24777708 -0.05933472 -3.83482161 0.00566682 0 0 Z " fill="#020202" transform="translate(293.9296875,363.83203125)"/>
<path d="M0 0 C0.98417404 -0.00095673 1.96834808 -0.00191345 2.98234558 -0.00289917 C5.05064966 -0.00357671 7.11895592 -0.00175229 9.18725586 0.00244141 C12.36251538 0.00782445 15.5376353 0.0024673 18.71289062 -0.00390625 C20.72526073 -0.00324595 22.73763075 -0.0019658 24.75 0 C25.70203812 -0.00202423 26.65407623 -0.00404846 27.63496399 -0.00613403 C28.95224739 -0.00140579 28.95224739 -0.00140579 30.29614258 0.00341797 C31.07000809 0.00421356 31.8438736 0.00500916 32.64118958 0.00582886 C34.54296875 0.1328125 34.54296875 0.1328125 36.54296875 1.1328125 C36.40147886 2.7373681 36.25461189 4.34145017 36.10546875 5.9453125 C35.98365234 7.28529297 35.98365234 7.28529297 35.859375 8.65234375 C35.54296875 11.1328125 35.54296875 11.1328125 34.54296875 14.1328125 C33.41802002 14.14739502 32.29307129 14.16197754 31.1340332 14.17700195 C26.94979488 14.23509004 22.76608878 14.31232214 18.58227539 14.39526367 C16.77344417 14.42846364 14.96451057 14.45651091 13.15551758 14.47924805 C10.55115242 14.51288508 7.94772115 14.56520445 5.34375 14.62109375 C4.53835281 14.62748367 3.73295563 14.6338736 2.90315247 14.64045715 C-1.65787613 14.7591847 -4.79340764 15.12278492 -8.45703125 18.1328125 C-11.31181446 24.20176967 -12.68055156 30.67153592 -14.14453125 37.1953125 C-14.48194336 38.62713867 -14.48194336 38.62713867 -14.82617188 40.08789062 C-15.14424805 41.4887793 -15.14424805 41.4887793 -15.46875 42.91796875 C-15.65912842 43.75207275 -15.84950684 44.58617676 -16.0456543 45.44555664 C-16.63357308 48.83295099 -16.63357308 48.83295099 -16.45703125 55.1328125 C3.34296875 55.6278125 3.34296875 55.6278125 23.54296875 56.1328125 C23.54296875 64.1328125 23.54296875 64.1328125 22.54296875 66.1328125 C-6.16703125 66.6278125 -6.16703125 66.6278125 -35.45703125 67.1328125 C-35.45703125 59.94075677 -35.33440249 53.55347459 -34.20703125 46.5703125 C-34.07280762 45.71824219 -33.93858398 44.86617188 -33.80029297 43.98828125 C-28.31221887 10.22320191 -28.31221887 10.22320191 -20.58203125 2.9453125 C-14.34340818 -0.67308888 -7.02540241 -0.01509797 0 0 Z " fill="#010101" transform="translate(164.45703125,363.8671875)"/>
<path d="M0 0 C1.09356219 1.11622669 2.15203238 2.26718078 3.1875 3.4375 C5.3288265 5.7995334 6.35458769 6.88745125 9.53125 7.44140625 C10.4078125 7.46074219 11.284375 7.48007813 12.1875 7.5 C16.59832571 7.63447639 16.59832571 7.63447639 18.5625 9.421875 C20.17318109 12.03923177 21.02879431 14.29741876 20.90234375 17.3828125 C19.68888321 20.90237337 17.45448754 23.05316673 14.875 25.625 C10.38333999 30.27806314 6.84538905 34.97355644 3.6328125 40.625 C1.35372045 43.94004299 -1.40613251 46.20306625 -5 48 C-9.36954865 48.5724616 -13.84641724 48.92908043 -17.96484375 47.15234375 C-22.67723626 43.52657352 -25.56605341 38.26121878 -28.64477539 33.26855469 C-31.65233243 28.40615378 -35.02135187 24.11937202 -39 20 C-36.83377163 17.59619077 -34.93325971 16.34911484 -31.9453125 15.1328125 C-31.16542969 14.80410156 -30.38554687 14.47539063 -29.58203125 14.13671875 C-27.95343615 13.46612077 -26.32323693 12.7994044 -24.69140625 12.13671875 C-19.79542805 10.06379223 -16.64240462 7.98836778 -13 4 C-9.19188637 1.48289459 -4.57278796 -1.28976071 0 0 Z " fill="#FAFAFA" transform="translate(263,101)"/>
<path d="M0 0 C-2.47015334 2.47015334 -3.71416403 2.40945414 -7.125 2.875 C-13.83167147 4.01768321 -18.80566455 5.64108939 -23.5 10.6875 C-25.40693381 14.89864549 -25.55604279 18.4422722 -25 23 C-24.67 23.66 -24.34 24.32 -24 25 C-13.47916749 26.03145417 -4.13703611 21.32880586 4 15 C4.66 15 5.32 15 6 15 C3.77163956 20.51034782 -1.00612453 23.13647584 -6 26 C-9.28547036 27.27323106 -12.56307716 28.23217681 -16 29 C-16.82934992 31.88736639 -17.15572513 33.54024008 -16.1796875 36.421875 C-15.74914062 37.19015625 -15.31859375 37.9584375 -14.875 38.75 C-14.45992188 39.52859375 -14.04484375 40.3071875 -13.6171875 41.109375 C-12.10110801 43.19988922 -12.10110801 43.19988922 -9.48046875 43.89453125 C-6.77460087 44.28273692 -6.77460087 44.28273692 -4.4375 41.9375 C-2.04230004 39.05097698 -0.04292407 36.13734768 2 33 C2.33 33 2.66 33 3 33 C3 35.31 3 37.62 3 40 C3.99 40.495 3.99 40.495 5 41 C4.67 41.33 4.34 41.66 4 42 C3.59439265 46.13719492 3.72503401 48.4806198 5.6875 52.1875 C9.26429231 56.53765281 12.6618706 59.16978421 18 61 C18 61.33 18 61.66 18 62 C16.35 62.33 14.7 62.66 13 63 C13.03093173 65.41585574 13.03093173 65.41585574 14 68 C18.66780836 71.30162055 22.49125454 71.5331044 28 71 C30.4595774 69.66169042 30.4595774 69.66169042 32 68 C31.58578031 63.16743695 29.53586014 61.17320782 26 58 C26.495 57.01 26.495 57.01 27 56 C31.05626703 58.85034981 33.27904757 61.31518506 35 66 C35.15074719 68.9395703 34.48028737 70.36788926 32.71484375 72.69140625 C28.0139708 77.83680619 21.86145493 82.3252785 14.8046875 83.3046875 C12.875 83.3125 12.875 83.3125 10 83 C11 81 11 81 13.07421875 80.25390625 C14.36779297 79.91166016 14.36779297 79.91166016 15.6875 79.5625 C19.73003226 78.42571905 23.30789871 77.04037177 27 75 C26.2265625 74.88785156 25.453125 74.77570313 24.65625 74.66015625 C16.09972542 73.03992325 12.02616535 70.05141432 7 63 C2.0078952 64.32187391 -0.9664633 66.32683843 -4.75 69.8125 C-5.69359375 70.66457031 -6.6371875 71.51664062 -7.609375 72.39453125 C-9.9242306 74.91742126 -11.00002984 76.76172453 -12 80 C-12.99 79.67 -13.98 79.34 -15 79 C-13.48802117 74.22250478 -10.80124808 71.07401346 -7.5625 67.375 C-7.07201172 66.80265625 -6.58152344 66.2303125 -6.07617188 65.640625 C-4.17467417 63.43375857 -2.30445394 61.27503192 -0.140625 59.3203125 C1.39744915 57.84832565 1.39744915 57.84832565 0.8125 54.5 C0.19629245 50.91290967 0.19629245 50.91290967 -2 48 C-4.19975521 47.6797297 -4.19975521 47.6797297 -6.6875 47.75 C-9.87774769 47.55776126 -11.47572685 47.4469561 -13.93359375 45.3515625 C-14.49175781 44.69929688 -15.04992187 44.04703125 -15.625 43.375 C-17.22270871 41.46950847 -17.22270871 41.46950847 -19 40 C-25.49775942 39.58744385 -29.91481623 42.11200075 -35 46 C-35.70125 46.70125 -36.4025 47.4025 -37.125 48.125 C-39.52993611 50.52993611 -41.84658367 51.7517727 -45 53 C-47.1875 52.57421875 -47.1875 52.57421875 -49 52 C-48.48050781 51.78085938 -47.96101562 51.56171875 -47.42578125 51.3359375 C-42.98515889 49.3167266 -40.50186103 47.57532263 -37.55078125 43.58984375 C-33.5184355 39.45592758 -27.42331798 36.80777266 -22 35 C-21.96127313 32.66461093 -21.96127313 32.66461093 -23 30 C-24.71438785 28.51728618 -26.48872719 27.31959171 -28.40625 26.11328125 C-30 25 -30 25 -31 23 C-31.59202006 17.07979939 -30.52817863 12.73413799 -27 8 C-19.50149034 1.31354093 -9.72088553 -0.47036543 0 0 Z " fill="#0F0F0F" transform="translate(282,62)"/>
<path d="M0 0 C0.33 0 0.66 0 1 0 C0.68359981 15.26630923 -0.13021088 28.20517131 -11.54296875 39.53125 C-15.69563659 43.2035321 -18.90862055 44.92394984 -24.4375 45.125 C-29.51905168 43.52029947 -31.39948875 40.50699538 -34 36 C-35.21886416 33.19661243 -35.89217444 30.62050556 -36.4140625 27.6171875 C-37.1658953 23.34830632 -37.68173243 20.47740136 -40.125 16.8125 C-42.44770736 13.32843896 -42.32825978 11.10324729 -42 7 C-41.34 6.67 -40.68 6.34 -40 6 C-39.814375 6.9590625 -39.814375 6.9590625 -39.625 7.9375 C-39.41875 8.618125 -39.2125 9.29875 -39 10 C-38.34 10.33 -37.68 10.66 -37 11 C-37 11.66 -37 12.32 -37 13 C-37.66 13 -38.32 13 -39 13 C-35.91551281 16.34152779 -32.49310993 18.91150482 -28.8046875 21.53515625 C-24.96192187 24.6542842 -24.20008077 28.48403664 -22.9765625 33.0390625 C-22.18024894 35.17189501 -22.18024894 35.17189501 -20.0625 35.81640625 C-17.17708385 36.07325201 -15.52096281 35.39316366 -13 34 C-12.29120108 32.68857851 -11.63118268 31.35049274 -11 30 C-10.02990254 28.41109386 -9.05007177 26.8281045 -8.0625 25.25 C-3.13046967 17.01794938 -1.34471495 9.49210555 0 0 Z " fill="#090909" transform="translate(288,238)"/>
<path d="M0 0 C3.17013523 1.34713992 4.56648066 2.58496232 6.4375 5.4375 C10.58863679 10.61294327 16.75937554 11.02779589 23 12 C18.87341615 16.55752457 13.42151323 18.74949863 7.375 19.375 C4 19 4 19 0.375 17.8125 C-2.95536844 16.60987644 -2.95536844 16.60987644 -5.5 18.375 C-6.325 18.91125 -7.15 19.4475 -8 20 C-14.1641791 20.41791045 -14.1641791 20.41791045 -17 19 C-16.8965796 14.75976358 -15.8733237 12.47949732 -13 9.5 C-9.02913124 5.79330546 -4.60826937 2.85273818 0 0 Z " fill="#F3F3F3" transform="translate(287,124)"/>
<path d="M0 0 C0.33 0 0.66 0 1 0 C1.86697654 11.48743918 -3.14224561 20.11959333 -10 29 C-11.43088528 26.13822943 -10.59991697 24.06624227 -10 21 C-20.36765043 21.45743932 -20.36765043 21.45743932 -28.6875 26.9375 C-29.450625 27.948125 -30.21375 28.95875 -31 30 C-31.98290968 31.01680311 -32.97334787 32.02738219 -34 33 C-34.33 32.34 -34.66 31.68 -35 31 C-34.2578125 29.1875 -34.2578125 29.1875 -33.125 27 C-30.78591351 22.03952349 -30.22695692 17.43561814 -30 12 C-29.67 12 -29.34 12 -29 12 C-28.34 14.64 -27.68 17.28 -27 20 C-25.41058594 19.13375 -25.41058594 19.13375 -23.7890625 18.25 C-22.40115942 17.49978212 -21.01313213 16.74979399 -19.625 16 C-18.92632812 15.6184375 -18.22765625 15.236875 -17.5078125 14.84375 C-12.2265625 12 -12.2265625 12 -10 12 C-10 13.32 -10 14.64 -10 16 C-9.01 16 -8.02 16 -7 16 C-6.82984375 15.34773437 -6.6596875 14.69546875 -6.484375 14.0234375 C-4.9945778 8.65065825 -3.46714918 4.39172229 0 0 Z " fill="#090909" transform="translate(299,153)"/>
<path d="M0 0 C0.33 0 0.66 0 1 0 C1.46692609 3.8132297 1.79820232 7.39374101 0.05078125 10.91015625 C-4.16539696 16.21360104 -10.09024804 19.8230255 -16 23 C-16.66 23 -17.32 23 -18 23 C-18 31.91 -18 40.82 -18 50 C-18.66 50 -19.32 50 -20 50 C-20.33745354 47.60468244 -20.6700829 45.20885732 -21 42.8125 C-21.09539062 42.13896484 -21.19078125 41.46542969 -21.2890625 40.77148438 C-21.78324613 37.15335423 -22.11346131 33.65203599 -22 30 C-24.51083114 31.25541557 -24.87125446 32.50063488 -26 35 C-26.495 33.515 -26.495 33.515 -27 32 C-23.40208248 25.86169982 -17.99326503 19.5428524 -11.25 16.9375 C-8.34877456 15.72865607 -8.30658697 14.81600152 -7 12 C-5.82692389 9.90851095 -4.63829631 7.82569801 -3.4375 5.75 C-2.81746094 4.67234375 -2.19742187 3.5946875 -1.55859375 2.484375 C-1.04425781 1.66453125 -0.52992188 0.8446875 0 0 Z " fill="#0E0E0E" transform="translate(295,203)"/>
<path d="M0 0 C0.66 0 1.32 0 2 0 C4.45862192 11.42778458 6.56449499 22.90568584 8.41079712 34.44750977 C8.63458039 35.84283825 8.86122428 37.23771135 9.09091187 38.63208008 C10.4291856 46.79024963 11.3516698 54.71513713 11 63 C8.80934042 59.71401062 8.34148197 57.51855497 7.59765625 53.6640625 C7.34838379 52.38152588 7.09911133 51.09898926 6.84228516 49.77758789 C6.58171886 48.39351187 6.32180318 47.00931322 6.0625 45.625 C5.93027039 44.92970184 5.79804077 44.23440369 5.6618042 43.51803589 C3.99046711 34.72431924 2.4133858 25.92168614 1.125 17.0625 C1.00519775 16.2492627 0.88539551 15.43602539 0.76196289 14.59814453 C0.08985166 9.68867511 -0.10146781 4.95501139 0 0 Z " fill="#020202" transform="translate(235,175)"/>
<path d="M0 0 C0.99 0 1.98 0 3 0 C2.7718076 3.76517459 1.64549635 5.55470431 -0.875 8.1875 C-4.62274693 12.25957119 -5.78288556 16.69380808 -7 22 C-11.23582543 17.97050418 -13.72916991 14.0312257 -14.5 8.25 C-14 5 -14 5 -12.5625 3.125 C-9.3492383 1.71429974 -6.40750197 1.45027018 -2.92578125 1.2109375 C-0.99401197 1.2026491 -0.99401197 1.2026491 0 0 Z " fill="#EFEFEF" transform="translate(258,150)"/>
<path d="M0 0 C0.66 0 1.32 0 2 0 C6.44014479 4.99516289 8.46618391 9.87471292 9.4375 16.390625 C10.08696852 19.40343731 11.21626891 21.85604742 12.5625 24.625 C14.78590954 29.37227982 16.34693349 32.70926433 16 38 C12.18021937 44.42524828 6.39414219 48.82822875 -0.8125 50.75 C-5.21313587 51.09514791 -9.58857152 51.07846414 -14 51 C-14 50.67 -14 50.34 -14 50 C-13.20078125 49.78085938 -12.4015625 49.56171875 -11.578125 49.3359375 C-4.40111134 47.26370116 2.04885442 44.69703684 8.63671875 41.171875 C11 40 11 40 13 40 C11.82336108 30.98942304 10.10314623 22.65471934 5 15 C4.47265625 12.94921875 4.47265625 12.94921875 4.0625 10.6875 C3.25840913 6.7506711 1.98638304 3.52131538 0 0 Z " fill="#0D0D0D" transform="translate(317,99)"/>
<path d="M0 0 C1 2 1 2 -0.0390625 5.37890625 C-0.55751843 6.77725788 -1.08681901 8.17162076 -1.625 9.5625 C-1.89989258 10.28324707 -2.17478516 11.00399414 -2.45800781 11.74658203 C-7.38672595 24.38672595 -7.38672595 24.38672595 -12 29 C-12.763125 29.268125 -13.52625 29.53625 -14.3125 29.8125 C-17.65502989 31.28943181 -19.49458974 33.36610716 -22 36 C-23.31175986 37.02813611 -24.6369893 38.04084432 -26 39 C-25.22011524 33.93074905 -22.30619412 30.17222549 -18.5625 26.8125 C-16 25 -16 25 -13.59765625 23.98046875 C-9.65867682 20.97736714 -8.58405478 17.04622083 -6.875 12.5 C-6.21253541 10.77861518 -5.54350484 9.05973947 -4.8671875 7.34375 C-4.57956543 6.58255859 -4.29194336 5.82136719 -3.99560547 5.03710938 C-2.94330551 2.88399735 -1.78138836 1.58205898 0 0 Z " fill="#151515" transform="translate(324,149)"/>
<path d="M0 0 C5.04264427 2.38124868 6.77574377 5.03819765 9 10 C9.22612695 13.01502598 8.52215685 14.31644921 6.7109375 16.6875 C2.02352235 21.84143514 -4.14364924 26.32598691 -11.1953125 27.3046875 C-13.125 27.3125 -13.125 27.3125 -16 27 C-15 25 -15 25 -12.92578125 24.25390625 C-11.63220703 23.91166016 -11.63220703 23.91166016 -10.3125 23.5625 C-6.26996774 22.42571905 -2.69210129 21.04037177 1 19 C0.16855469 18.81824219 -0.66289062 18.63648438 -1.51953125 18.44921875 C-2.60621094 18.19785156 -3.69289063 17.94648438 -4.8125 17.6875 C-5.89144531 17.44386719 -6.97039062 17.20023438 -8.08203125 16.94921875 C-10.9447156 16.01798408 -12.15397066 15.31239465 -14 13 C-13.67 12.34 -13.34 11.68 -13 11 C-12.401875 11.474375 -11.80375 11.94875 -11.1875 12.4375 C-7.12846863 15.33680812 -2.84861877 15.58534633 2 15 C4.4595774 13.66169042 4.4595774 13.66169042 6 12 C5.58259614 7.13028826 3.45534852 5.27815116 0 2 C0 1.34 0 0.68 0 0 Z " fill="#181818" transform="translate(308,118)"/>
<path d="M0 0 C6.79392555 -0.3639603 12.37838934 0.15981571 17.8828125 4.4765625 C21.94931669 8.33181972 25.7212187 12.83713611 28 18 C27.67 18.66 27.34 19.32 27 20 C26.58492188 19.35933594 26.16984375 18.71867187 25.7421875 18.05859375 C18.96645167 8.54704827 10.65441478 5.17348074 0 1 C0 0.67 0 0.34 0 0 Z " fill="#101010" transform="translate(299,78)"/>
<path d="M0 0 C0.33 0.66 0.66 1.32 1 2 C-2.95869987 10.62332174 -8.8255193 17.88744627 -15 25 C-16 22 -16 22 -14.8828125 19.43359375 C-10.62392257 12.17455247 -5.87650419 6.02308366 0 0 Z " fill="#161616" transform="translate(211,190)"/>
<path d="M0 0 C0 8.58 0 17.16 0 26 C-0.66 26 -1.32 26 -2 26 C-2.6198548 22.4219909 -3.18941663 18.83773357 -3.75 15.25 C-3.92660156 14.23421875 -4.10320312 13.2184375 -4.28515625 12.171875 C-4.50751953 10.70234375 -4.50751953 10.70234375 -4.734375 9.203125 C-4.88100586 8.30239258 -5.02763672 7.40166016 -5.17871094 6.47363281 C-5 4 -5 4 -3.07910156 1.67480469 C-1 0 -1 0 0 0 Z " fill="#0B0B0B" transform="translate(277,227)"/>
<path d="M0 0 C0.33 0 0.66 0 1 0 C1.66 2.64 2.32 5.28 3 8 C4.32 7.67 5.64 7.34 7 7 C3.7250724 12.02935309 0.37395567 16.84474211 -4 21 C-4.33 20.34 -4.66 19.68 -5 19 C-4.2578125 17.1875 -4.2578125 17.1875 -3.125 15 C-0.78591351 10.03952349 -0.22695692 5.43561814 0 0 Z " fill="#111111" transform="translate(269,165)"/>
<path d="M0 0 C-0.79206575 3.74431084 -1.36071022 6.3413378 -4.0625 9.125 C-9.20591795 12.40803273 -14.53186196 15.29692949 -20 18 C-16.34119271 13.08347771 -12.5156979 9.75176098 -7 7 C-6.34 7 -5.68 7 -5 7 C-5 5.02 -5 3.04 -5 1 C-3 0 -3 0 0 0 Z " fill="#202020" transform="translate(249,85)"/>
<path d="M0 0 C1 2 1 2 -0.14453125 5.625 C-0.69253816 7.08635176 -1.24890926 8.54458734 -1.8125 10 C-2.08642578 10.73734375 -2.36035156 11.4746875 -2.64257812 12.234375 C-4.73568667 17.73568667 -4.73568667 17.73568667 -7 20 C-7.66 20 -8.32 20 -9 20 C-4.92134831 4.92134831 -4.92134831 4.92134831 0 0 Z " fill="#0E0E0E" transform="translate(324,149)"/>
<path d="M0 0 C1 3 1 3 -0.36328125 6.1015625 C-1.00255949 7.28176849 -1.65276434 8.45610664 -2.3125 9.625 C-2.79493164 10.5221875 -2.79493164 10.5221875 -3.28710938 11.4375 C-5.72481216 15.86240608 -5.72481216 15.86240608 -8 17 C-7.65272969 10.51762093 -6.08806871 6.10690203 -2 1 C-1.34 0.67 -0.68 0.34 0 0 Z " fill="#0B0B0B" transform="translate(282,178)"/>
<path d="M0 0 C0.33 0.66 0.66 1.32 1 2 C-1.22421992 5.33632988 -1.78255461 5.51222834 -5.4375 6.5625 C-8.49011868 7.45263757 -10.29289991 8.19526661 -13 10 C-12.71125 9.443125 -12.4225 8.88625 -12.125 8.3125 C-10.9586747 5.91505355 -9.9660119 3.48403061 -9 1 C-7.700625 1.020625 -6.40125 1.04125 -5.0625 1.0625 C-3.70834367 1.08399454 -2.35243917 1.07148199 -1 1 C-0.67 0.67 -0.34 0.34 0 0 Z " fill="#131313" transform="translate(283,155)"/>
<path d="M0 0 C0.66 0.33 1.32 0.66 2 1 C2 3 2 3 0.6796875 4.40234375 C-2.99525687 7.52843279 -6.43095134 10.27391495 -11 12 C-13.17578125 11.56640625 -13.17578125 11.56640625 -15 11 C-14.22076172 10.67128906 -14.22076172 10.67128906 -13.42578125 10.3359375 C-8.20351596 7.96130301 -5.44516366 5.55977544 -2 1 C-1.34 0.67 -0.68 0.34 0 0 Z " fill="#171717" transform="translate(248,103)"/>
<path d="M0 0 C0 0.99 0 1.98 0 3 C-5.81475715 6.27591952 -10.24520726 8.7342166 -17 8 C-16 6 -16 6 -13.92578125 5.25390625 C-13.06339844 5.02574219 -12.20101563 4.79757813 -11.3125 4.5625 C-7.26996774 3.42571905 -3.69210129 2.04037177 0 0 Z " fill="#202020" transform="translate(309,137)"/>
<path d="M0 0 C0 0.66 0 1.32 0 2 C-1.86328125 3.4375 -1.86328125 3.4375 -4.3125 5 C-5.11300781 5.515625 -5.91351563 6.03125 -6.73828125 6.5625 C-7.48464844 7.036875 -8.23101562 7.51125 -9 8 C-9.99 8.66 -10.98 9.32 -12 10 C-10.63746417 6.88175879 -9.14891747 4.95262649 -6.5625 2.75 C-5.66724609 1.96882812 -5.66724609 1.96882812 -4.75390625 1.171875 C-3 0 -3 0 0 0 Z M-13 10 C-13 13.10551666 -13.5393715 14.35261084 -15 17 C-15.33 16.01 -15.66 15.02 -16 14 C-14.5625 11.8125 -14.5625 11.8125 -13 10 Z " fill="#303030" transform="translate(284,221)"/>
<path d="M0 0 C-2.47223763 2.47223763 -3.96806683 2.58009771 -7.375 3.1875 C-8.33148438 3.36667969 -9.28796875 3.54585938 -10.2734375 3.73046875 C-12.87310329 3.98745577 -14.54700305 3.81960325 -17 3 C-11.64153053 -0.57231298 -6.234225 -0.12223971 0 0 Z " fill="#070707" transform="translate(282,62)"/>
<path d="M0 0 C1.43861294 0.08746284 2.87597508 0.19565348 4.3125 0.3125 C5.11300781 0.37050781 5.91351563 0.42851563 6.73828125 0.48828125 C9 1 9 1 12 4 C8.04 3.67 4.08 3.34 0 3 C0 2.01 0 1.02 0 0 Z " fill="#161616" transform="translate(291,71)"/>
<path d="M0 0 C-1.50223584 4.20626034 -4.28550034 5.73900021 -8 8 C-6.65580512 3.85539913 -4.87800266 0 0 0 Z " fill="#2C2C2C" transform="translate(288,77)"/>
<path d="M0 0 C0.99 0.33 1.98 0.66 3 1 C0.61042731 4.24299151 -1.2047869 6.50902342 -5 8 C-3.62845496 5.04590299 -2.01136276 2.55991624 0 0 Z " fill="#111111" transform="translate(260,153)"/>
<path d="M0 0 C2.97 0.99 5.94 1.98 9 3 C5.7955129 4.06816237 3.35033432 4 0 4 C-0.99 4.495 -0.99 4.495 -2 5 C-1.34 3.35 -0.68 1.7 0 0 Z " fill="#101010" transform="translate(284,140)"/>
<path d="M0 0 C0.66 0.99 1.32 1.98 2 3 C1.34 3 0.68 3 0 3 C0 4.65 0 6.3 0 8 C-0.66 7.01 -1.32 6.02 -2 5 C-2.99 5.495 -2.99 5.495 -4 6 C-2.84826645 3.53199953 -1.95216435 1.95216435 0 0 Z " fill="#D6D6D6" transform="translate(235,172)"/>
<path d="M0 0 C0.66 0 1.32 0 2 0 C3.2890625 1.53125 3.2890625 1.53125 4.625 3.5 C5.07101562 4.1496875 5.51703125 4.799375 5.9765625 5.46875 C6.31429688 5.9740625 6.65203125 6.479375 7 7 C6.01 7.33 5.02 7.66 4 8 C2.68 5.36 1.36 2.72 0 0 Z " fill="#272727" transform="translate(317,99)"/>
</svg>
