<?xml version="1.0" standalone="no"?>
<!DOCTYPE svg PUBLIC "-//W3C//DTD SVG 20010904//EN"
 "http://www.w3.org/TR/2001/REC-SVG-20010904/DTD/svg10.dtd">
<svg version="1.0" xmlns="http://www.w3.org/2000/svg"
 width="193.000000pt" height="261.000000pt" viewBox="0 0 193.000000 261.000000"
 preserveAspectRatio="xMidYMid meet">

<g transform="translate(0.000000,261.000000) scale(0.100000,-0.100000)"
fill="#000000" stroke="none">
<path d="M725 2574 c-605 -46 -655 -54 -692 -110 -22 -35 -11 -62 61 -143 101
-115 228 -367 284 -566 27 -92 31 -117 37 -200 3 -38 10 -95 14 -125 l9 -55 1
73 c1 99 -15 245 -44 377 -27 124 -40 164 -85 261 -77 165 -91 193 -120 229
-16 21 -30 41 -30 46 0 4 -12 20 -28 34 -48 45 -33 48 348 65 398 17 683 11
999 -21 119 -12 278 -42 292 -56 5 -5 -4 -29 -24 -59 -17 -28 -45 -80 -61
-115 -15 -35 -41 -91 -57 -124 -76 -162 -173 -444 -198 -572 -28 -148 -28
-244 2 -327 26 -70 56 -113 159 -224 40 -44 81 -101 100 -140 28 -58 32 -78
32 -147 1 -96 -23 -158 -87 -223 -53 -54 -106 -82 -267 -137 -182 -62 -295
-131 -358 -219 -46 -63 -39 -66 15 -6 61 67 109 99 208 138 69 27 226 77 276
87 39 8 118 57 172 107 48 44 62 65 82 123 32 92 32 170 0 273 -27 86 -49 120
-167 260 -43 51 -78 96 -79 100 0 4 -3 18 -7 32 -9 34 -8 195 1 250 10 62 77
265 97 295 4 6 15 35 24 65 10 30 33 87 51 125 121 256 161 333 203 392 38 54
37 70 -5 112 -30 30 -54 42 -118 59 -44 12 -109 23 -145 26 -36 3 -128 12
-205 21 -132 15 -578 28 -690 19z"/>
<path d="M1064 2336 c-56 -21 -81 -43 -86 -78 -7 -42 -2 -53 28 -66 37 -18 29
-38 -26 -63 -27 -13 -50 -29 -50 -36 0 -14 -31 -33 -66 -39 -18 -3 -24 0 -24
14 0 11 -8 18 -22 19 -20 2 -21 1 -6 -8 17 -9 17 -12 2 -42 -22 -42 -19 -40
-46 -26 -21 11 -22 11 -9 -5 8 -9 24 -16 35 -14 32 3 73 -29 80 -63 3 -16 17
-41 31 -55 21 -20 23 -29 14 -40 -6 -8 -17 -14 -25 -14 -13 0 -37 -34 -29 -41
2 -2 -9 -18 -23 -36 -22 -25 -36 -32 -74 -36 -89 -8 -158 -81 -203 -216 -39
-115 -28 -222 28 -255 27 -17 102 28 147 89 46 61 55 80 63 125 6 32 4 30 -23
-20 -34 -62 -63 -98 -100 -123 -33 -23 -70 -22 -71 1 -5 108 4 158 42 233 20
40 95 118 115 121 8 0 19 1 26 2 7 1 16 -10 20 -24 6 -22 7 -21 4 8 -1 20 2
31 8 29 14 -4 21 -67 8 -67 -6 0 -36 -34 -67 -75 -31 -40 -62 -76 -69 -78 -6
-2 -8 -8 -4 -12 12 -13 55 22 114 93 51 62 55 70 52 112 -2 35 2 52 18 73 12
15 26 27 30 27 5 0 25 -20 44 -45 19 -24 38 -44 42 -45 4 0 5 -12 2 -27 -2
-16 0 -48 5 -73 l10 -45 -3 62 c-2 51 0 60 11 51 7 -6 13 -18 14 -27 0 -10 2
-11 6 -4 3 10 8 10 19 -1 8 -8 14 -19 14 -25 0 -18 -103 -215 -116 -223 -16
-10 -9 -60 10 -74 9 -6 16 -26 16 -45 0 -41 31 -95 59 -104 29 -9 77 20 107
65 29 43 32 57 39 165 l4 70 -8 -61 c-9 -69 -40 -140 -76 -174 -31 -29 -50
-21 -61 26 -7 29 -18 42 -47 57 -25 13 -34 22 -27 27 9 5 9 9 1 14 -17 11 -13
24 9 31 11 4 18 11 15 16 -4 5 1 9 9 9 9 0 16 4 16 10 0 5 10 19 23 30 16 16
17 19 5 15 -23 -9 -22 -3 1 43 10 20 19 40 20 45 0 4 5 15 10 25 16 26 32 -4
20 -35 -12 -33 -11 -37 4 -24 8 6 19 36 26 66 8 35 20 60 34 70 11 8 18 18 14
21 -4 4 -19 -8 -35 -25 l-29 -33 -26 32 c-15 17 -27 36 -27 42 0 21 35 68 51
68 9 0 31 3 48 6 31 7 32 6 25 -22 l-7 -29 25 30 c28 34 48 85 48 124 0 22 -2
23 -14 11 -8 -8 -18 -30 -23 -49 -5 -19 -14 -36 -21 -39 -7 -2 -10 2 -6 12 8
22 0 20 -51 -9 l-43 -26 -8 23 c-5 17 -1 26 16 37 13 9 30 16 39 16 9 0 17 9
19 20 2 15 1 17 -6 6 -6 -8 -17 -11 -31 -6 -15 4 -21 2 -21 -8 0 -8 -7 -20
-16 -28 -9 -7 -13 -21 -10 -33 3 -12 -3 -38 -13 -59 l-18 -38 -17 26 c-25 38
-33 95 -15 109 8 6 21 25 29 41 19 37 67 47 87 19 12 -17 13 -17 13 3 0 32 26
48 55 35 33 -15 81 1 121 42 31 30 31 31 16 63 -9 18 -22 33 -29 33 -7 0 -13
8 -14 18 0 11 -2 12 -6 4 -3 -7 6 -23 20 -36 38 -35 27 -66 -23 -66 -23 0 -43
7 -53 18 -23 26 -21 32 11 33 26 0 26 1 -8 12 -45 16 -79 70 -61 99 8 14 9 18
1 13 -8 -5 -10 3 -7 27 2 18 2 25 0 16 -2 -10 -17 -31 -33 -49 -32 -33 -43
-30 -68 18 -18 33 -15 53 9 53 36 0 109 49 109 73 0 6 -10 1 -23 -11 -21 -20
-96 -52 -121 -52 -49 1 -43 80 8 111 17 10 45 19 61 19 17 0 37 5 45 10 21 14
-46 11 -86 -4z m-1 -232 c15 -20 26 -25 46 -21 22 5 29 1 40 -24 12 -28 11
-31 -32 -73 -24 -25 -49 -58 -56 -74 -18 -42 -77 -61 -115 -37 -15 10 -36 34
-46 54 -10 20 -30 48 -44 63 -14 15 -26 29 -26 31 0 3 27 15 59 27 33 12 61
29 63 37 3 13 51 38 82 42 4 0 17 -11 29 -25z m145 -133 c16 -22 32 -31 59
-33 l38 -4 -44 -21 c-40 -19 -48 -20 -72 -7 -24 12 -30 12 -43 -1 -14 -15 -66
-12 -66 4 1 19 79 91 101 91 3 0 15 -13 27 -29z m-178 -121 c0 -6 -11 -21 -24
-33 -13 -13 -26 -36 -28 -52 l-3 -30 -22 38 c-19 31 -21 41 -11 57 8 12 19 18
30 14 10 -3 26 -1 35 5 23 13 23 13 23 1z"/>
<path d="M1190 2289 c0 -5 8 -9 18 -9 9 0 28 -3 42 -6 21 -6 23 -4 12 7 -14
15 -72 21 -72 8z"/>
<path d="M1250 2248 c14 -6 42 -17 63 -26 21 -9 46 -30 58 -49 12 -19 24 -32
26 -29 5 5 -29 59 -52 82 -20 21 -54 34 -87 33 -32 0 -32 -1 -8 -11z"/>
<path d="M943 2214 c-7 -3 -9 -12 -7 -19 4 -9 -8 -21 -32 -32 -20 -10 -44 -29
-52 -43 -14 -25 -14 -25 4 -4 11 11 38 29 62 39 25 10 41 24 38 30 -2 7 1 18
7 24 11 11 2 13 -20 5z"/>
<path d="M1340 2143 c0 -5 7 -19 16 -31 9 -13 13 -29 11 -36 -3 -8 -1 -18 4
-23 20 -20 49 -116 38 -129 -13 -16 -102 -54 -133 -56 -13 -1 -23 -5 -20 -9 4
-7 43 -4 91 6 33 8 83 54 83 78 0 12 -11 44 -25 72 -14 27 -23 56 -20 63 3 8
-6 27 -20 44 -14 16 -25 26 -25 21z"/>
<path d="M1374 1862 c-5 -4 -16 -22 -22 -39 -7 -18 -17 -46 -23 -62 -7 -18
-19 -31 -32 -33 -12 -2 -32 -18 -44 -37 -33 -49 -28 -62 7 -19 18 21 37 35 44
32 9 -4 23 13 40 48 22 45 49 118 43 118 -1 0 -7 -4 -13 -8z"/>
<path d="M886 1720 c-8 -21 48 -351 59 -350 11 1 9 37 -5 115 -5 28 -14 88
-21 135 -14 95 -24 125 -33 100z"/>
<path d="M1143 1703 c-18 -6 -46 -68 -41 -90 3 -13 12 -2 31 36 29 58 29 61
10 54z"/>
<path d="M736 1618 c-14 -18 -30 -38 -35 -44 -5 -6 -16 -25 -25 -42 -29 -57 1
-34 50 38 49 72 56 106 10 48z"/>
<path d="M1222 1579 c-2 -27 -57 -109 -74 -109 -17 0 -78 -69 -77 -88 0 -12 3
-10 11 8 10 23 12 19 18 -38 10 -90 20 -88 20 4 l0 79 44 28 c61 38 68 49 63
99 -2 24 -4 32 -5 17z"/>
<path d="M1054 1346 c-10 -8 -17 -17 -14 -19 3 -3 14 1 24 9 11 7 17 16 15 19
-3 3 -14 -2 -25 -9z"/>
<path d="M998 1293 c7 -3 16 -2 19 1 4 3 -2 6 -13 5 -11 0 -14 -3 -6 -6z"/>
<path d="M378 655 c-27 -26 -66 -178 -75 -287 l-5 -59 164 3 163 3 3 28 3 27
-117 0 c-115 0 -116 0 -111 23 2 12 12 55 21 95 26 117 19 112 151 112 l115 0
6 28 c3 15 7 33 10 40 2 9 -32 12 -150 12 -150 0 -154 -1 -178 -25z"/>
<path d="M720 533 c-18 -82 -35 -165 -38 -185 l-4 -38 171 0 c152 0 171 2 179
18 10 18 23 79 27 122 2 14 12 69 24 122 11 54 21 100 21 103 0 3 -22 5 -50 5
-44 0 -50 -3 -54 -22 -23 -127 -46 -238 -55 -260 -10 -27 -13 -28 -81 -28 -38
0 -70 3 -70 8 0 4 7 35 15 68 8 34 19 93 25 130 6 38 13 77 16 87 5 15 -2 17
-44 17 l-48 0 -34 -147z"/>
<path d="M1147 663 c-3 -10 -8 -28 -12 -40 -6 -23 -6 -23 104 -23 60 0 112 -4
115 -8 3 -5 1 -25 -5 -45 l-10 -37 -64 0 -65 0 10 26 c6 14 10 27 10 30 0 7
-110 4 -110 -3 0 -5 -9 -57 -20 -118 -11 -60 -20 -116 -20 -122 0 -9 15 -13
44 -13 l44 0 13 58 14 57 108 5 c81 4 110 9 117 20 13 20 38 106 45 155 10 67
5 70 -164 73 -137 3 -150 2 -154 -15z"/>
</g>
</svg>
